<mxfile host="app.diagrams.net" agent="Mozilla/5.0 (Windows NT 10.0; Win64; x64) AppleWebKit/537.36 (KHTML, like Gecko) Chrome/140.0.0.0 Safari/537.36" version="28.2.0">
  <diagram name="1 oldal" id="dW3yiIn9LfA7M5KkalzY">
    <mxGraphModel grid="1" page="1" gridSize="10" guides="1" tooltips="1" connect="1" arrows="1" fold="1" pageScale="1" pageWidth="827" pageHeight="1169" math="0" shadow="0">
      <root>
        <mxCell id="0" />
        <mxCell id="1" parent="0" />
        <mxCell id="RfMzVArLG_Qw0BaoaFv3-7" value="&lt;font style=&quot;font-size: 46px;&quot;&gt;Smart Manager ER Diagram&amp;nbsp;&lt;/font&gt;" style="text;html=1;align=center;verticalAlign=middle;whiteSpace=wrap;rounded=0;strokeWidth=16;" vertex="1" parent="1">
          <mxGeometry x="160.5" y="10" width="667" height="60" as="geometry" />
        </mxCell>
        <mxCell id="RfMzVArLG_Qw0BaoaFv3-8" value="" style="whiteSpace=wrap;html=1;aspect=fixed;fillColor=#d0cee2;strokeColor=#56517e;" vertex="1" parent="1">
          <mxGeometry x="369" y="120" width="250" height="250" as="geometry" />
        </mxCell>
        <mxCell id="RfMzVArLG_Qw0BaoaFv3-9" value="" style="whiteSpace=wrap;html=1;aspect=fixed;fillColor=#d0cee2;strokeColor=#56517e;" vertex="1" parent="1">
          <mxGeometry x="9.999999999999996" y="120" width="250" height="250" as="geometry" />
        </mxCell>
        <mxCell id="RfMzVArLG_Qw0BaoaFv3-10" value="" style="whiteSpace=wrap;html=1;aspect=fixed;fillColor=#d0cee2;strokeColor=#56517e;" vertex="1" parent="1">
          <mxGeometry x="90" y="850" width="250" height="250" as="geometry" />
        </mxCell>
        <mxCell id="RfMzVArLG_Qw0BaoaFv3-11" value="" style="whiteSpace=wrap;html=1;aspect=fixed;fillColor=#d0cee2;strokeColor=#56517e;" vertex="1" parent="1">
          <mxGeometry x="730" y="120" width="250" height="250" as="geometry" />
        </mxCell>
        <mxCell id="RfMzVArLG_Qw0BaoaFv3-12" value="" style="whiteSpace=wrap;html=1;aspect=fixed;fillColor=#d0cee2;strokeColor=#56517e;" vertex="1" parent="1">
          <mxGeometry x="369" y="850" width="250" height="250" as="geometry" />
        </mxCell>
        <mxCell id="RfMzVArLG_Qw0BaoaFv3-15" value="" style="whiteSpace=wrap;html=1;aspect=fixed;fillColor=#d0cee2;strokeColor=#56517e;" vertex="1" parent="1">
          <mxGeometry x="650" y="850" width="250" height="250" as="geometry" />
        </mxCell>
        <mxCell id="RfMzVArLG_Qw0BaoaFv3-16" value="" style="whiteSpace=wrap;html=1;aspect=fixed;fillColor=#fad7ac;strokeColor=#b46504;fillStyle=auto;" vertex="1" parent="1">
          <mxGeometry x="370.5" y="460" width="250" height="250" as="geometry" />
        </mxCell>
        <mxCell id="RfMzVArLG_Qw0BaoaFv3-18" value="Projekt" style="swimlane;fontStyle=0;childLayout=stackLayout;horizontal=1;startSize=30;horizontalStack=0;resizeParent=1;resizeParentMax=0;resizeLast=0;collapsible=1;marginBottom=0;whiteSpace=wrap;html=1;" vertex="1" parent="1">
          <mxGeometry x="369" y="120" width="250" height="150" as="geometry" />
        </mxCell>
        <mxCell id="RfMzVArLG_Qw0BaoaFv3-19" value="határidők [datetime]" style="text;strokeColor=none;fillColor=none;align=left;verticalAlign=middle;spacingLeft=4;spacingRight=4;overflow=hidden;points=[[0,0.5],[1,0.5]];portConstraint=eastwest;rotatable=0;whiteSpace=wrap;html=1;" vertex="1" parent="RfMzVArLG_Qw0BaoaFv3-18">
          <mxGeometry y="30" width="250" height="30" as="geometry" />
        </mxCell>
        <mxCell id="RfMzVArLG_Qw0BaoaFv3-20" value="&lt;span id=&quot;docs-internal-guid-c6ff591d-7fff-b846-9cea-ced6b58c3b06&quot;&gt;&lt;span style=&quot;font-family: Arial, sans-serif; background-color: transparent; font-variant-numeric: normal; font-variant-east-asian: normal; font-variant-alternates: normal; font-variant-position: normal; font-variant-emoji: normal; vertical-align: baseline; white-space-collapse: preserve;&quot;&gt;&lt;font&gt;css, js, html, cs, xml, txt…stb [varchar(255)]&lt;/font&gt;&lt;/span&gt;&lt;/span&gt;" style="text;strokeColor=none;fillColor=none;align=left;verticalAlign=middle;spacingLeft=4;spacingRight=4;overflow=hidden;points=[[0,0.5],[1,0.5]];portConstraint=eastwest;rotatable=0;whiteSpace=wrap;html=1;" vertex="1" parent="RfMzVArLG_Qw0BaoaFv3-18">
          <mxGeometry y="60" width="250" height="30" as="geometry" />
        </mxCell>
        <mxCell id="RfMzVArLG_Qw0BaoaFv3-21" value="Visszajelzések [varchar(255)]" style="text;strokeColor=none;fillColor=none;align=left;verticalAlign=middle;spacingLeft=4;spacingRight=4;overflow=hidden;points=[[0,0.5],[1,0.5]];portConstraint=eastwest;rotatable=0;whiteSpace=wrap;html=1;" vertex="1" parent="RfMzVArLG_Qw0BaoaFv3-18">
          <mxGeometry y="90" width="250" height="30" as="geometry" />
        </mxCell>
        <mxCell id="3zYCqZzu2xg0SS8wbqwf-18" style="edgeStyle=orthogonalEdgeStyle;rounded=0;orthogonalLoop=1;jettySize=auto;html=1;exitX=1;exitY=0.5;exitDx=0;exitDy=0;entryX=0.004;entryY=1.022;entryDx=0;entryDy=0;entryPerimeter=0;endArrow=none;endFill=0;" edge="1" parent="RfMzVArLG_Qw0BaoaFv3-18" source="3zYCqZzu2xg0SS8wbqwf-11">
          <mxGeometry relative="1" as="geometry">
            <mxPoint x="-15.5" y="120" as="sourcePoint" />
            <mxPoint y="121.15999999999997" as="targetPoint" />
          </mxGeometry>
        </mxCell>
        <mxCell id="vYbS7MiqNIapcNikHe-C-2" value="projekt neve [varchar(255)]" style="text;strokeColor=none;fillColor=none;align=left;verticalAlign=middle;spacingLeft=4;spacingRight=4;overflow=hidden;points=[[0,0.5],[1,0.5]];portConstraint=eastwest;rotatable=0;whiteSpace=wrap;html=1;" vertex="1" parent="RfMzVArLG_Qw0BaoaFv3-18">
          <mxGeometry y="120" width="250" height="30" as="geometry" />
        </mxCell>
        <mxCell id="RfMzVArLG_Qw0BaoaFv3-22" value="Tagok" style="swimlane;fontStyle=0;childLayout=stackLayout;horizontal=1;startSize=30;horizontalStack=0;resizeParent=1;resizeParentMax=0;resizeLast=0;collapsible=1;marginBottom=0;whiteSpace=wrap;html=1;" vertex="1" parent="1">
          <mxGeometry x="10.499999999999996" y="120" width="250" height="120" as="geometry" />
        </mxCell>
        <mxCell id="RfMzVArLG_Qw0BaoaFv3-23" value="név [varchar(255)]" style="text;strokeColor=none;fillColor=none;align=left;verticalAlign=middle;spacingLeft=4;spacingRight=4;overflow=hidden;points=[[0,0.5],[1,0.5]];portConstraint=eastwest;rotatable=0;whiteSpace=wrap;html=1;" vertex="1" parent="RfMzVArLG_Qw0BaoaFv3-22">
          <mxGeometry y="30" width="250" height="30" as="geometry" />
        </mxCell>
        <mxCell id="RfMzVArLG_Qw0BaoaFv3-24" value="státusz [varchar(255)]" style="text;strokeColor=none;fillColor=none;align=left;verticalAlign=middle;spacingLeft=4;spacingRight=4;overflow=hidden;points=[[0,0.5],[1,0.5]];portConstraint=eastwest;rotatable=0;whiteSpace=wrap;html=1;" vertex="1" parent="RfMzVArLG_Qw0BaoaFv3-22">
          <mxGeometry y="60" width="250" height="32" as="geometry" />
        </mxCell>
        <mxCell id="RfMzVArLG_Qw0BaoaFv3-25" value="elérhetőség [varchar(255)]" style="text;strokeColor=none;fillColor=none;align=left;verticalAlign=middle;spacingLeft=4;spacingRight=4;overflow=hidden;points=[[0,0.5],[1,0.5]];portConstraint=eastwest;rotatable=0;whiteSpace=wrap;html=1;" vertex="1" parent="RfMzVArLG_Qw0BaoaFv3-22">
          <mxGeometry y="92" width="250" height="28" as="geometry" />
        </mxCell>
        <mxCell id="RfMzVArLG_Qw0BaoaFv3-26" value="Kanban board" style="swimlane;fontStyle=0;childLayout=stackLayout;horizontal=1;startSize=30;horizontalStack=0;resizeParent=1;resizeParentMax=0;resizeLast=0;collapsible=1;marginBottom=0;whiteSpace=wrap;html=1;" vertex="1" parent="1">
          <mxGeometry x="730" y="120" width="250" height="120" as="geometry" />
        </mxCell>
        <mxCell id="RfMzVArLG_Qw0BaoaFv3-27" value="táblák [varchar(255)]" style="text;strokeColor=none;fillColor=none;align=left;verticalAlign=middle;spacingLeft=4;spacingRight=4;overflow=hidden;points=[[0,0.5],[1,0.5]];portConstraint=eastwest;rotatable=0;whiteSpace=wrap;html=1;" vertex="1" parent="RfMzVArLG_Qw0BaoaFv3-26">
          <mxGeometry y="30" width="250" height="30" as="geometry" />
        </mxCell>
        <mxCell id="RfMzVArLG_Qw0BaoaFv3-28" value="oszlopok [varchar(255)]" style="text;strokeColor=none;fillColor=none;align=left;verticalAlign=middle;spacingLeft=4;spacingRight=4;overflow=hidden;points=[[0,0.5],[1,0.5]];portConstraint=eastwest;rotatable=0;whiteSpace=wrap;html=1;" vertex="1" parent="RfMzVArLG_Qw0BaoaFv3-26">
          <mxGeometry y="60" width="250" height="30" as="geometry" />
        </mxCell>
        <mxCell id="RfMzVArLG_Qw0BaoaFv3-29" value="határidő [datetime]" style="text;strokeColor=none;fillColor=none;align=left;verticalAlign=middle;spacingLeft=4;spacingRight=4;overflow=hidden;points=[[0,0.5],[1,0.5]];portConstraint=eastwest;rotatable=0;whiteSpace=wrap;html=1;" vertex="1" parent="RfMzVArLG_Qw0BaoaFv3-26">
          <mxGeometry y="90" width="250" height="30" as="geometry" />
        </mxCell>
        <mxCell id="RfMzVArLG_Qw0BaoaFv3-30" value="Felhasználó" style="swimlane;fontStyle=0;childLayout=stackLayout;horizontal=1;startSize=30;horizontalStack=0;resizeParent=1;resizeParentMax=0;resizeLast=0;collapsible=1;marginBottom=0;whiteSpace=wrap;html=1;" vertex="1" parent="1">
          <mxGeometry x="90" y="850" width="250" height="120" as="geometry" />
        </mxCell>
        <mxCell id="RfMzVArLG_Qw0BaoaFv3-31" value="E-mail [varchar(255)]" style="text;strokeColor=none;fillColor=none;align=left;verticalAlign=middle;spacingLeft=4;spacingRight=4;overflow=hidden;points=[[0,0.5],[1,0.5]];portConstraint=eastwest;rotatable=0;whiteSpace=wrap;html=1;" vertex="1" parent="RfMzVArLG_Qw0BaoaFv3-30">
          <mxGeometry y="30" width="250" height="30" as="geometry" />
        </mxCell>
        <mxCell id="RfMzVArLG_Qw0BaoaFv3-32" value="Jelszó [varchar(255)]" style="text;strokeColor=none;fillColor=none;align=left;verticalAlign=middle;spacingLeft=4;spacingRight=4;overflow=hidden;points=[[0,0.5],[1,0.5]];portConstraint=eastwest;rotatable=0;whiteSpace=wrap;html=1;" vertex="1" parent="RfMzVArLG_Qw0BaoaFv3-30">
          <mxGeometry y="60" width="250" height="30" as="geometry" />
        </mxCell>
        <mxCell id="RfMzVArLG_Qw0BaoaFv3-33" value="Felhasználónév [varchar(255)]" style="text;strokeColor=none;fillColor=none;align=left;verticalAlign=middle;spacingLeft=4;spacingRight=4;overflow=hidden;points=[[0,0.5],[1,0.5]];portConstraint=eastwest;rotatable=0;whiteSpace=wrap;html=1;" vertex="1" parent="RfMzVArLG_Qw0BaoaFv3-30">
          <mxGeometry y="90" width="250" height="30" as="geometry" />
        </mxCell>
        <mxCell id="RfMzVArLG_Qw0BaoaFv3-34" value="Statisztika" style="swimlane;fontStyle=0;childLayout=stackLayout;horizontal=1;startSize=30;horizontalStack=0;resizeParent=1;resizeParentMax=0;resizeLast=0;collapsible=1;marginBottom=0;whiteSpace=wrap;html=1;" vertex="1" parent="1">
          <mxGeometry x="369" y="850" width="250" height="120" as="geometry" />
        </mxCell>
        <mxCell id="RfMzVArLG_Qw0BaoaFv3-35" value="Oldal nézettsége [int]" style="text;strokeColor=none;fillColor=none;align=left;verticalAlign=middle;spacingLeft=4;spacingRight=4;overflow=hidden;points=[[0,0.5],[1,0.5]];portConstraint=eastwest;rotatable=0;whiteSpace=wrap;html=1;" vertex="1" parent="RfMzVArLG_Qw0BaoaFv3-34">
          <mxGeometry y="30" width="250" height="30" as="geometry" />
        </mxCell>
        <mxCell id="RfMzVArLG_Qw0BaoaFv3-36" value="Feltöltések száma [int]" style="text;strokeColor=none;fillColor=none;align=left;verticalAlign=middle;spacingLeft=4;spacingRight=4;overflow=hidden;points=[[0,0.5],[1,0.5]];portConstraint=eastwest;rotatable=0;whiteSpace=wrap;html=1;" vertex="1" parent="RfMzVArLG_Qw0BaoaFv3-34">
          <mxGeometry y="60" width="250" height="30" as="geometry" />
        </mxCell>
        <mxCell id="RfMzVArLG_Qw0BaoaFv3-37" value="Aktivitási idő [varchar(255)]" style="text;strokeColor=none;fillColor=none;align=left;verticalAlign=middle;spacingLeft=4;spacingRight=4;overflow=hidden;points=[[0,0.5],[1,0.5]];portConstraint=eastwest;rotatable=0;whiteSpace=wrap;html=1;" vertex="1" parent="RfMzVArLG_Qw0BaoaFv3-34">
          <mxGeometry y="90" width="250" height="30" as="geometry" />
        </mxCell>
        <mxCell id="RfMzVArLG_Qw0BaoaFv3-38" value="Kommunikáció" style="swimlane;fontStyle=0;childLayout=stackLayout;horizontal=1;startSize=30;horizontalStack=0;resizeParent=1;resizeParentMax=0;resizeLast=0;collapsible=1;marginBottom=0;whiteSpace=wrap;html=1;" vertex="1" parent="1">
          <mxGeometry x="650" y="850" width="250" height="150" as="geometry" />
        </mxCell>
        <mxCell id="RfMzVArLG_Qw0BaoaFv3-39" value="üzenetek [varchar(255)]" style="text;strokeColor=none;fillColor=none;align=left;verticalAlign=middle;spacingLeft=4;spacingRight=4;overflow=hidden;points=[[0,0.5],[1,0.5]];portConstraint=eastwest;rotatable=0;whiteSpace=wrap;html=1;" vertex="1" parent="RfMzVArLG_Qw0BaoaFv3-38">
          <mxGeometry y="30" width="250" height="30" as="geometry" />
        </mxCell>
        <mxCell id="RfMzVArLG_Qw0BaoaFv3-40" value="felhasználók [varchar(255)]" style="text;strokeColor=none;fillColor=none;align=left;verticalAlign=middle;spacingLeft=4;spacingRight=4;overflow=hidden;points=[[0,0.5],[1,0.5]];portConstraint=eastwest;rotatable=0;whiteSpace=wrap;html=1;" vertex="1" parent="RfMzVArLG_Qw0BaoaFv3-38">
          <mxGeometry y="60" width="250" height="30" as="geometry" />
        </mxCell>
        <mxCell id="RfMzVArLG_Qw0BaoaFv3-41" value="küldés ideje [int]" style="text;strokeColor=none;fillColor=none;align=left;verticalAlign=middle;spacingLeft=4;spacingRight=4;overflow=hidden;points=[[0,0.5],[1,0.5]];portConstraint=eastwest;rotatable=0;whiteSpace=wrap;html=1;" vertex="1" parent="RfMzVArLG_Qw0BaoaFv3-38">
          <mxGeometry y="90" width="250" height="30" as="geometry" />
        </mxCell>
        <mxCell id="vYbS7MiqNIapcNikHe-C-1" value="megtekintés állapota [varchar(255)]" style="text;strokeColor=none;fillColor=none;align=left;verticalAlign=middle;spacingLeft=4;spacingRight=4;overflow=hidden;points=[[0,0.5],[1,0.5]];portConstraint=eastwest;rotatable=0;whiteSpace=wrap;html=1;" vertex="1" parent="RfMzVArLG_Qw0BaoaFv3-38">
          <mxGeometry y="120" width="250" height="30" as="geometry" />
        </mxCell>
        <mxCell id="RfMzVArLG_Qw0BaoaFv3-43" value="&lt;font style=&quot;font-size: 24px;&quot;&gt;MySql&amp;nbsp;&lt;/font&gt;&lt;div&gt;&lt;font style=&quot;font-size: 24px;&quot;&gt;DataBase&lt;/font&gt;&lt;/div&gt;" style="text;html=1;align=center;verticalAlign=middle;whiteSpace=wrap;rounded=0;" vertex="1" parent="1">
          <mxGeometry x="465" y="570" width="60" height="30" as="geometry" />
        </mxCell>
        <mxCell id="RfMzVArLG_Qw0BaoaFv3-46" value="" style="shape=partialRectangle;whiteSpace=wrap;html=1;left=0;right=0;fillColor=none;" vertex="1" parent="1">
          <mxGeometry x="435" y="555" width="120" height="60" as="geometry" />
        </mxCell>
        <mxCell id="y598lY7veWp8VIVPKDEV-1" value="" style="endArrow=classic;html=1;rounded=0;exitX=0.469;exitY=0.993;exitDx=0;exitDy=0;entryX=0;entryY=0;entryDx=0;entryDy=0;startArrow=classic;startFill=1;exitPerimeter=0;" edge="1" parent="1" source="RfMzVArLG_Qw0BaoaFv3-9" target="RfMzVArLG_Qw0BaoaFv3-16">
          <mxGeometry relative="1" as="geometry">
            <mxPoint x="360" y="380" as="sourcePoint" />
            <mxPoint x="460" y="380" as="targetPoint" />
          </mxGeometry>
        </mxCell>
        <mxCell id="y598lY7veWp8VIVPKDEV-2" value="" style="shape=message;html=1;outlineConnect=0;" vertex="1" parent="y598lY7veWp8VIVPKDEV-1">
          <mxGeometry width="20" height="14" relative="1" as="geometry">
            <mxPoint x="-19" y="-11" as="offset" />
          </mxGeometry>
        </mxCell>
        <mxCell id="y598lY7veWp8VIVPKDEV-4" value="" style="endArrow=classic;html=1;rounded=0;exitX=0.5;exitY=1;exitDx=0;exitDy=0;entryX=0.5;entryY=0;entryDx=0;entryDy=0;startArrow=classic;startFill=1;" edge="1" parent="1" source="RfMzVArLG_Qw0BaoaFv3-8" target="RfMzVArLG_Qw0BaoaFv3-16">
          <mxGeometry relative="1" as="geometry">
            <mxPoint x="450" y="380" as="sourcePoint" />
            <mxPoint x="541" y="470" as="targetPoint" />
          </mxGeometry>
        </mxCell>
        <mxCell id="y598lY7veWp8VIVPKDEV-5" value="" style="shape=message;html=1;outlineConnect=0;" vertex="1" parent="y598lY7veWp8VIVPKDEV-4">
          <mxGeometry width="20" height="14" relative="1" as="geometry">
            <mxPoint x="-10" y="-7" as="offset" />
          </mxGeometry>
        </mxCell>
        <mxCell id="y598lY7veWp8VIVPKDEV-8" value="" style="endArrow=classic;html=1;rounded=0;exitX=0.25;exitY=1;exitDx=0;exitDy=0;entryX=1;entryY=0;entryDx=0;entryDy=0;startArrow=classic;startFill=1;" edge="1" parent="1" source="RfMzVArLG_Qw0BaoaFv3-11" target="RfMzVArLG_Qw0BaoaFv3-16">
          <mxGeometry relative="1" as="geometry">
            <mxPoint x="530" y="390" as="sourcePoint" />
            <mxPoint x="621" y="480" as="targetPoint" />
          </mxGeometry>
        </mxCell>
        <mxCell id="y598lY7veWp8VIVPKDEV-9" value="" style="shape=message;html=1;outlineConnect=0;" vertex="1" parent="y598lY7veWp8VIVPKDEV-8">
          <mxGeometry width="20" height="14" relative="1" as="geometry">
            <mxPoint x="-10" y="-7" as="offset" />
          </mxGeometry>
        </mxCell>
        <mxCell id="y598lY7veWp8VIVPKDEV-10" value="" style="endArrow=classic;html=1;rounded=0;exitX=0.75;exitY=0;exitDx=0;exitDy=0;entryX=0;entryY=1;entryDx=0;entryDy=0;startArrow=classic;startFill=1;" edge="1" parent="1" source="RfMzVArLG_Qw0BaoaFv3-30" target="RfMzVArLG_Qw0BaoaFv3-16">
          <mxGeometry relative="1" as="geometry">
            <mxPoint x="250" y="740" as="sourcePoint" />
            <mxPoint x="341" y="830" as="targetPoint" />
          </mxGeometry>
        </mxCell>
        <mxCell id="y598lY7veWp8VIVPKDEV-11" value="" style="shape=message;html=1;outlineConnect=0;" vertex="1" parent="y598lY7veWp8VIVPKDEV-10">
          <mxGeometry width="20" height="14" relative="1" as="geometry">
            <mxPoint x="-10" y="-7" as="offset" />
          </mxGeometry>
        </mxCell>
        <mxCell id="y598lY7veWp8VIVPKDEV-12" value="" style="endArrow=classic;html=1;rounded=0;exitX=0.5;exitY=0;exitDx=0;exitDy=0;startArrow=classic;startFill=1;" edge="1" parent="1" source="RfMzVArLG_Qw0BaoaFv3-34" target="RfMzVArLG_Qw0BaoaFv3-16">
          <mxGeometry relative="1" as="geometry">
            <mxPoint x="430" y="780" as="sourcePoint" />
            <mxPoint x="521" y="870" as="targetPoint" />
          </mxGeometry>
        </mxCell>
        <mxCell id="y598lY7veWp8VIVPKDEV-13" value="" style="shape=message;html=1;outlineConnect=0;" vertex="1" parent="y598lY7veWp8VIVPKDEV-12">
          <mxGeometry width="20" height="14" relative="1" as="geometry">
            <mxPoint x="-10" y="-7" as="offset" />
          </mxGeometry>
        </mxCell>
        <mxCell id="y598lY7veWp8VIVPKDEV-14" value="" style="endArrow=classic;html=1;rounded=0;exitX=0.25;exitY=0;exitDx=0;exitDy=0;entryX=1;entryY=1;entryDx=0;entryDy=0;startArrow=classic;startFill=1;" edge="1" parent="1" source="RfMzVArLG_Qw0BaoaFv3-38" target="RfMzVArLG_Qw0BaoaFv3-16">
          <mxGeometry relative="1" as="geometry">
            <mxPoint x="500" y="760" as="sourcePoint" />
            <mxPoint x="591" y="850" as="targetPoint" />
          </mxGeometry>
        </mxCell>
        <mxCell id="y598lY7veWp8VIVPKDEV-15" value="" style="shape=message;html=1;outlineConnect=0;" vertex="1" parent="y598lY7veWp8VIVPKDEV-14">
          <mxGeometry width="20" height="14" relative="1" as="geometry">
            <mxPoint x="-10" y="-7" as="offset" />
          </mxGeometry>
        </mxCell>
        <mxCell id="3zYCqZzu2xg0SS8wbqwf-11" value="&lt;font style=&quot;font-size: 8px;&quot;&gt;tartalmazza&lt;/font&gt;" style="shape=rhombus;perimeter=rhombusPerimeter;whiteSpace=wrap;html=1;align=center;verticalAlign=top;spacing=0;" vertex="1" parent="1">
          <mxGeometry x="276" y="227" width="64" height="25" as="geometry" />
        </mxCell>
        <mxCell id="y598lY7veWp8VIVPKDEV-26" value="" style="endArrow=none;html=1;rounded=0;exitX=0.998;exitY=0.483;exitDx=0;exitDy=0;entryX=0;entryY=0.487;entryDx=0;entryDy=0;exitPerimeter=0;entryPerimeter=0;strokeWidth=2;strokeColor=default;" edge="1" parent="1" source="y598lY7veWp8VIVPKDEV-27">
          <mxGeometry relative="1" as="geometry">
            <mxPoint x="609" y="390" as="sourcePoint" />
            <mxPoint x="729" y="241" as="targetPoint" />
          </mxGeometry>
        </mxCell>
        <mxCell id="y598lY7veWp8VIVPKDEV-27" value="&lt;font style=&quot;font-size: 8px;&quot;&gt;tartalmazza&lt;/font&gt;" style="shape=rhombus;perimeter=rhombusPerimeter;whiteSpace=wrap;html=1;align=center;verticalAlign=top;spacing=0;" vertex="1" parent="1">
          <mxGeometry x="630" y="227" width="64" height="25" as="geometry" />
        </mxCell>
        <mxCell id="y598lY7veWp8VIVPKDEV-28" value="" style="endArrow=none;html=1;rounded=0;strokeWidth=2;strokeColor=default;exitX=1.001;exitY=0.996;exitDx=0;exitDy=0;exitPerimeter=0;" edge="1" parent="1" source="RfMzVArLG_Qw0BaoaFv3-21">
          <mxGeometry relative="1" as="geometry">
            <mxPoint x="600" y="239" as="sourcePoint" />
            <mxPoint x="630" y="240" as="targetPoint" />
          </mxGeometry>
        </mxCell>
        <mxCell id="3zYCqZzu2xg0SS8wbqwf-19" style="edgeStyle=orthogonalEdgeStyle;rounded=0;orthogonalLoop=1;jettySize=auto;html=1;exitX=0;exitY=0.5;exitDx=0;exitDy=0;entryX=0.992;entryY=1.037;entryDx=0;entryDy=0;entryPerimeter=0;endArrow=none;endFill=0;" edge="1" parent="1" source="3zYCqZzu2xg0SS8wbqwf-11" target="RfMzVArLG_Qw0BaoaFv3-25">
          <mxGeometry relative="1" as="geometry">
            <Array as="points">
              <mxPoint x="259" y="239" />
            </Array>
          </mxGeometry>
        </mxCell>
      </root>
    </mxGraphModel>
  </diagram>
</mxfile>
